<svg width="57" height="56" viewBox="0 0 57 56" fill="none" xmlns="http://www.w3.org/2000/svg">
<path d="M52.1734 7.33825C51.3334 6.62593 50.0141 6.52401 48.6499 7.07169H48.6477C47.213 7.64737 8.03537 24.4518 6.44049 25.1384C6.15041 25.2392 3.61697 26.1845 3.87793 28.2901C4.11089 30.1885 6.14705 30.9747 6.39569 31.0654L16.3558 34.4758C17.0166 36.6755 19.4526 44.791 19.9914 46.5248C20.3274 47.6056 20.875 49.0258 21.8349 49.3181C22.6771 49.6429 23.5149 49.3461 24.057 48.9205L30.1464 43.2723L39.9766 50.9387L40.2107 51.0787C40.8782 51.3744 41.5178 51.5223 42.1282 51.5223C42.5997 51.5223 43.0522 51.4338 43.4845 51.2568C44.9573 50.652 45.5464 49.2487 45.608 49.0896L52.9507 10.9234C53.3987 8.88497 52.776 7.84785 52.1734 7.33825ZM25.14 35.84L21.78 44.8L18.42 33.6L44.18 14.56L25.14 35.84Z" fill="white"/>
</svg>
